<?xml version="1.0" encoding="UTF-8" standalone="no"?>
<!-- Created with Inkscape (http://www.inkscape.org/) -->

<svg
   xmlns:dc="http://purl.org/dc/elements/1.1/"
   xmlns:cc="http://creativecommons.org/ns#"
   xmlns:rdf="http://www.w3.org/1999/02/22-rdf-syntax-ns#"
   xmlns:svg="http://www.w3.org/2000/svg"
   xmlns="http://www.w3.org/2000/svg"
   xmlns:xlink="http://www.w3.org/1999/xlink"
   xmlns:sodipodi="http://sodipodi.sourceforge.net/DTD/sodipodi-0.dtd"
   xmlns:inkscape="http://www.inkscape.org/namespaces/inkscape"
   width="210mm"
   height="297mm"
   viewBox="0 0 744.09448819 1052.3622047"
   id="svg2"
   version="1.1"
   inkscape:version="0.91 r13725"
   sodipodi:docname="dessin.svg">
  <defs
     id="defs4">
    <linearGradient
       inkscape:collect="always"
       id="linearGradient11301">
      <stop
         style="stop-color:#ffe052;stop-opacity:1"
         offset="0"
         id="stop11303" />
      <stop
         style="stop-color:#ffc331;stop-opacity:1"
         offset="1"
         id="stop11305" />
    </linearGradient>
    <linearGradient
       inkscape:collect="always"
       xlink:href="#linearGradient11301"
       id="linearGradient11307"
       x1="89.136749"
       y1="111.92053"
       x2="147.77737"
       y2="168.1012"
       gradientUnits="userSpaceOnUse" />
    <linearGradient
       inkscape:collect="always"
       id="linearGradient9515">
      <stop
         style="stop-color:#387eb8;stop-opacity:1"
         offset="0"
         id="stop9517" />
      <stop
         style="stop-color:#366994;stop-opacity:1"
         offset="1"
         id="stop9519" />
    </linearGradient>
    <linearGradient
       inkscape:collect="always"
       xlink:href="#linearGradient9515"
       id="linearGradient9521"
       x1="55.549179"
       y1="77.070274"
       x2="110.14919"
       y2="131.85291"
       gradientUnits="userSpaceOnUse" />
    <clipPath
       id="a">
      <path
         id="path3541"
         d="M239.03 226.605l-42.13 24.317c-1.578.91-2.546 2.59-2.546 4.406v48.668c0 1.817.968 3.496 2.546 4.406l42.133 24.336c1.575.907 3.517.907 5.09 0l42.126-24.336c1.57-.91 2.54-2.59 2.54-4.406v-48.668c0-1.816-.97-3.496-2.55-4.406l-42.12-24.317c-.79-.453-1.67-.68-2.55-.68-.88 0-1.76.227-2.55.68" />
    </clipPath>
    <linearGradient
       gradientUnits="userSpaceOnUse"
       gradientTransform="matrix(-38.064915,77.652126,-77.652126,-38.064915,258.72325,244.62943)"
       x2="1.251"
       x1="-.348"
       id="b">
      <stop
         id="stop3544"
         stop-color="#3E863D"
         offset=".3" />
      <stop
         id="stop3546"
         stop-color="#55934F"
         offset=".5" />
      <stop
         id="stop3548"
         stop-color="#5AAD45"
         offset=".8" />
    </linearGradient>
    <clipPath
       id="c">
      <path
         id="path3551"
         d="M195.398 307.086c.403.523.907.976 1.5 1.316l36.14 20.875 6.02 3.46c.9.52 1.926.74 2.934.665.336-.027.672-.09 1-.183l44.434-81.36c-.34-.37-.738-.68-1.184-.94l-27.586-15.93-14.582-8.39c-.414-.24-.863-.41-1.32-.53zm0 0" />
    </clipPath>
    <linearGradient
       gradientUnits="userSpaceOnUse"
       gradientTransform="matrix(106.8057,-78.916731,78.916731,106.8057,235.18824,285.39477)"
       x2=".582"
       x1="-.456"
       id="d">
      <stop
         id="stop3554"
         stop-color="#3E863D"
         offset=".57" />
      <stop
         id="stop3556"
         stop-color="#619857"
         offset=".72" />
      <stop
         id="stop3558"
         stop-color="#76AC64"
         offset="1" />
    </linearGradient>
    <clipPath
       id="e">
      <path
         id="path3561"
         d="M241.066 225.953c-.707.07-1.398.29-2.035.652l-42.01 24.247 45.3 82.51c.63-.09 1.25-.3 1.81-.624l42.13-24.336c1.3-.754 2.19-2.03 2.46-3.476l-46.18-78.89c-.34-.067-.68-.102-1.03-.102-.14 0-.28.007-.42.02" />
    </clipPath>
    <linearGradient
       gradientUnits="userSpaceOnUse"
       gradientTransform="matrix(97.417,0,0,97.417,192.862,279.652)"
       x2=".984"
       x1=".043"
       id="f">
      <stop
         id="stop3564"
         stop-color="#6BBF47"
         offset=".16" />
      <stop
         id="stop3566"
         stop-color="#79B461"
         offset=".38" />
      <stop
         id="stop3568"
         stop-color="#75AC64"
         offset=".47" />
      <stop
         id="stop3570"
         stop-color="#659E5A"
         offset=".7" />
      <stop
         id="stop3572"
         stop-color="#3E863D"
         offset=".9" />
    </linearGradient>
    <clipPath
       id="a-5">
      <path
         id="path3777"
         d="M239.03 226.605l-42.13 24.317c-1.578.91-2.546 2.59-2.546 4.406v48.668c0 1.817.968 3.496 2.546 4.406l42.133 24.336c1.575.907 3.517.907 5.09 0l42.126-24.336c1.57-.91 2.54-2.59 2.54-4.406v-48.668c0-1.816-.97-3.496-2.55-4.406l-42.12-24.317c-.79-.453-1.67-.68-2.55-.68-.88 0-1.76.227-2.55.68" />
    </clipPath>
    <linearGradient
       gradientUnits="userSpaceOnUse"
       gradientTransform="matrix(-38.064915,77.652126,-77.652126,-38.064915,258.72325,244.62943)"
       x2="1.251"
       x1="-.348"
       id="b-3">
      <stop
         id="stop3780"
         stop-color="#3E863D"
         offset=".3" />
      <stop
         id="stop3782"
         stop-color="#55934F"
         offset=".5" />
      <stop
         id="stop3784"
         stop-color="#5AAD45"
         offset=".8" />
    </linearGradient>
    <clipPath
       id="c-5">
      <path
         id="path3787"
         d="M195.398 307.086c.403.523.907.976 1.5 1.316l36.14 20.875 6.02 3.46c.9.52 1.926.74 2.934.665.336-.027.672-.09 1-.183l44.434-81.36c-.34-.37-.738-.68-1.184-.94l-27.586-15.93-14.582-8.39c-.414-.24-.863-.41-1.32-.53zm0 0" />
    </clipPath>
    <linearGradient
       gradientUnits="userSpaceOnUse"
       gradientTransform="matrix(106.8057,-78.916731,78.916731,106.8057,235.18824,285.39477)"
       x2=".582"
       x1="-.456"
       id="d-6">
      <stop
         id="stop3790"
         stop-color="#3E863D"
         offset=".57" />
      <stop
         id="stop3792"
         stop-color="#619857"
         offset=".72" />
      <stop
         id="stop3794"
         stop-color="#76AC64"
         offset="1" />
    </linearGradient>
    <clipPath
       id="e-2">
      <path
         id="path3797"
         d="M241.066 225.953c-.707.07-1.398.29-2.035.652l-42.01 24.247 45.3 82.51c.63-.09 1.25-.3 1.81-.624l42.13-24.336c1.3-.754 2.19-2.03 2.46-3.476l-46.18-78.89c-.34-.067-.68-.102-1.03-.102-.14 0-.28.007-.42.02" />
    </clipPath>
    <linearGradient
       gradientUnits="userSpaceOnUse"
       gradientTransform="matrix(97.417,0,0,97.417,192.862,279.652)"
       x2=".984"
       x1=".043"
       id="f-9">
      <stop
         id="stop3800"
         stop-color="#6BBF47"
         offset=".16" />
      <stop
         id="stop3802"
         stop-color="#79B461"
         offset=".38" />
      <stop
         id="stop3804"
         stop-color="#75AC64"
         offset=".47" />
      <stop
         id="stop3806"
         stop-color="#659E5A"
         offset=".7" />
      <stop
         id="stop3808"
         stop-color="#3E863D"
         offset=".9" />
    </linearGradient>
    <clipPath
       id="a-2">
      <path
         id="path3972"
         d="M239.03 226.605l-42.13 24.317c-1.578.91-2.546 2.59-2.546 4.406v48.668c0 1.817.968 3.496 2.546 4.406l42.133 24.336c1.575.907 3.517.907 5.09 0l42.126-24.336c1.57-.91 2.54-2.59 2.54-4.406v-48.668c0-1.816-.97-3.496-2.55-4.406l-42.12-24.317c-.79-.453-1.67-.68-2.55-.68-.88 0-1.76.227-2.55.68" />
    </clipPath>
    <linearGradient
       gradientUnits="userSpaceOnUse"
       gradientTransform="matrix(-38.064915,77.652126,-77.652126,-38.064915,258.72325,244.62943)"
       x2="1.251"
       x1="-.348"
       id="b-7">
      <stop
         id="stop3975"
         stop-color="#3E863D"
         offset=".3" />
      <stop
         id="stop3977"
         stop-color="#55934F"
         offset=".5" />
      <stop
         id="stop3979"
         stop-color="#5AAD45"
         offset=".8" />
    </linearGradient>
    <clipPath
       id="c-0">
      <path
         id="path3982"
         d="M195.398 307.086c.403.523.907.976 1.5 1.316l36.14 20.875 6.02 3.46c.9.52 1.926.74 2.934.665.336-.027.672-.09 1-.183l44.434-81.36c-.34-.37-.738-.68-1.184-.94l-27.586-15.93-14.582-8.39c-.414-.24-.863-.41-1.32-.53zm0 0" />
    </clipPath>
    <linearGradient
       gradientUnits="userSpaceOnUse"
       gradientTransform="matrix(106.8057,-78.916731,78.916731,106.8057,235.18824,285.39477)"
       x2=".582"
       x1="-.456"
       id="d-9">
      <stop
         id="stop3985"
         stop-color="#3E863D"
         offset=".57" />
      <stop
         id="stop3987"
         stop-color="#619857"
         offset=".72" />
      <stop
         id="stop3989"
         stop-color="#76AC64"
         offset="1" />
    </linearGradient>
    <clipPath
       id="e-3">
      <path
         id="path3992"
         d="M241.066 225.953c-.707.07-1.398.29-2.035.652l-42.01 24.247 45.3 82.51c.63-.09 1.25-.3 1.81-.624l42.13-24.336c1.3-.754 2.19-2.03 2.46-3.476l-46.18-78.89c-.34-.067-.68-.102-1.03-.102-.14 0-.28.007-.42.02" />
    </clipPath>
    <linearGradient
       gradientUnits="userSpaceOnUse"
       gradientTransform="matrix(97.417,0,0,97.417,192.862,279.652)"
       x2=".984"
       x1=".043"
       id="f-6">
      <stop
         id="stop3995"
         stop-color="#6BBF47"
         offset=".16" />
      <stop
         id="stop3997"
         stop-color="#79B461"
         offset=".38" />
      <stop
         id="stop3999"
         stop-color="#75AC64"
         offset=".47" />
      <stop
         id="stop4001"
         stop-color="#659E5A"
         offset=".7" />
      <stop
         id="stop4003"
         stop-color="#3E863D"
         offset=".9" />
    </linearGradient>
  </defs>
  <sodipodi:namedview
     id="base"
     pagecolor="#ffffff"
     bordercolor="#666666"
     borderopacity="1.0"
     inkscape:pageopacity="0.0"
     inkscape:pageshadow="2"
     inkscape:zoom="1.4292387"
     inkscape:cx="249.9453"
     inkscape:cy="722.41529"
     inkscape:document-units="px"
     inkscape:current-layer="layer1"
     showgrid="true"
     inkscape:snap-grids="true"
     inkscape:snap-intersection-paths="true"
     inkscape:window-width="1680"
     inkscape:window-height="1001"
     inkscape:window-x="0"
     inkscape:window-y="25"
     inkscape:window-maximized="1"
     inkscape:snap-nodes="false"
     inkscape:snap-global="false">
    <inkscape:grid
       type="xygrid"
       id="grid3346" />
  </sodipodi:namedview>
  <metadata
     id="metadata7">
    <rdf:RDF>
      <cc:Work
         rdf:about="">
        <dc:format>image/svg+xml</dc:format>
        <dc:type
           rdf:resource="http://purl.org/dc/dcmitype/StillImage" />
        <dc:title />
      </cc:Work>
    </rdf:RDF>
  </metadata>
  <g
     inkscape:label="Calque 1"
     inkscape:groupmode="layer"
     id="layer1">
    <path
       style="fill:#8665b3;fill-opacity:1"
       d="m 416.04483,526.905 -28.03037,-28.9108 0,-27.90417 0,-27.90416 27.90122,-28.7757 27.90119,-28.7757 27.05527,0 27.05529,0 28.16045,29.04494 28.16045,29.04493 0,27.63587 0,27.63585 -28.03128,28.90987 -28.03128,28.90985 -27.05529,0 -27.05527,0 -28.03038,-28.91078 z"
       id="path4515"
       inkscape:connector-curvature="0" />
    <path
       style="fill:#dd1b16;fill-opacity:1"
       d="m 531.12052,187.85375 -28.37947,-28.8514 0,-28.18395 0,-28.18398 28.38131,-28.84952 28.38133,-28.849527 27.72475,0 27.72475,0 28.37947,28.8514 28.37947,28.851407 0,27.99166 0,27.99166 -28.5668,29.04183 -28.56681,29.04182 -27.53927,0 -27.53925,0 -28.37948,-28.8514 z"
       id="path5461"
       inkscape:connector-curvature="0" />
    <path
       style="fill:#78cff5;fill-opacity:1"
       d="m 525.84801,411.94077 -28.27108,-28.56445 0,-27.53339 0,-27.53338 28.2729,-28.56262 28.2729,-28.56263 27.25236,0 27.25236,0 28.08569,28.37716 28.08569,28.37716 0,27.90799 0,27.90799 -28.08752,28.37531 -28.0875,28.37532 -27.25235,0 -27.25235,0 -28.2711,-28.56446 z"
       id="path4367"
       inkscape:connector-curvature="0" />
    <path
       style="fill:#333333;fill-opacity:1"
       d="m 414.71279,296.39766 -27.62987,-27.86195 0,-28.41922 0,-28.41923 27.63724,-27.85453 27.63724,-27.85452 27.44812,0 27.44811,0 28.00084,28.23585 28.00084,28.23585 0,27.67134 0,27.67134 -28.00811,28.22851 -28.00811,28.22852 -27.44821,0 -27.44822,0 -27.62987,-27.86196 z"
       id="path3868"
       inkscape:connector-curvature="0" />
    <path
       style="fill:#0c6ca8;fill-opacity:1"
       d="m 185.51715,522.37739 -28.31998,-28.40314 0,-27.7647 0,-27.7647 28.32337,-28.39976 28.3234,-28.39977 27.68668,0 27.68669,0 28.31998,28.40316 28.32001,28.40317 0,27.50995 0,27.50997 -28.57737,28.6545 -28.57738,28.6545 -27.43269,0 -27.4327,0 -28.32001,-28.40318 z"
       id="path5118"
       inkscape:connector-curvature="0"
       inkscape:export-xdpi="90"
       inkscape:export-ydpi="90" />
    <path
       style="fill:#8892bf;fill-opacity:1"
       d="m 69.559843,185.70397 -29.22237,-29.49839 0.023,-28.23575 0.0228,-28.235741 28.47739,-29.15739 28.47739,-29.15739 28.292687,0 28.29264,0 28.47056,29.1644 28.47055,29.16439 0,28.232231 0,28.23222 -28.84008,29.52892 -28.84007,29.5289 -27.2011,-0.0341 -27.201077,-0.0342 -29.22239,-29.49835 z"
       id="path5025"
       inkscape:connector-curvature="0"
       inkscape:export-xdpi="90"
       inkscape:export-ydpi="90" />
    <path
       style="fill:#264de4;fill-opacity:1"
       d="m 301.84694,412.44498 -28.29027,-28.745 0,-28.09882 0,-28.09879 28.29364,-28.74154 28.29367,-28.74155 27.65764,0 27.65762,0 28.29029,28.74498 28.29025,28.74499 0,27.84101 0,27.84102 -28.54737,28.99934 -28.54738,28.99934 -27.40391,0 -27.40391,0 -28.29027,-28.74498 z"
       id="path4193"
       inkscape:connector-curvature="0"
       inkscape:export-xdpi="90"
       inkscape:export-ydpi="90" />
    <path
       style="fill:#e44d26;fill-opacity:1"
       d="m 188.43603,298.23177 -28.46931,-28.78751 0,-27.9694 0,-27.96936 28.29137,-28.60422 28.29138,-28.60416 27.66187,0 27.66184,0 28.28968,28.60589 28.28967,28.60591 0,27.96937 0,27.96938 -28.471,28.78581 -28.47099,28.7858 -27.30259,0 -27.30263,0 -28.46929,-28.78751 z"
       id="path4029"
       inkscape:connector-curvature="0"
       inkscape:export-xdpi="90"
       inkscape:export-ydpi="90" />
    <g
       id="g3925"
       transform="matrix(1.3437828,0,0,1.3437828,36.932255,87.791217)"
       inkscape:export-xdpi="90"
       inkscape:export-ydpi="90">
      <path
         inkscape:connector-curvature="0"
         id="path3617"
         d="m 47.389133,133.62168 -42.0312497,42.03125 0,42.03125 42.0312497,42.03125 42.031248,0 42.031249,-42.03125 0,-42.03125 -42.031249,-42.03125 z"
         style="fill:none;fill-rule:evenodd;stroke:#000000;stroke-width:8.40625px;stroke-linecap:butt;stroke-linejoin:miter;stroke-opacity:1" />
      <g
         inkscape:label="Calque 1"
         id="layer1-0"
         transform="translate(-458.96956,-109.20878)">
        <g
           id="g1894"
           transform="translate(428.42338,184.2561)">
          <path
             inkscape:connector-curvature="0"
             style="color:#000000;display:inline;overflow:visible;visibility:visible;opacity:1;fill:url(#linearGradient9521);fill-opacity:1;fill-rule:nonzero;stroke:none;stroke-width:1;stroke-linecap:butt;stroke-linejoin:miter;stroke-miterlimit:4;stroke-dasharray:none;stroke-dashoffset:0;stroke-opacity:1;marker:none;marker-start:none;marker-mid:none;marker-end:none"
             d="M 99.75,67.46875 C 71.718268,67.468752 73.46875,79.625 73.46875,79.625 L 73.5,92.21875 l 26.75,0 0,3.78125 -37.375,0 c 0,0 -17.9375,-2.034276 -17.9375,26.25 -2e-6,28.28427 15.65625,27.28125 15.65625,27.28125 l 9.34375,0 0,-13.125 c 0,0 -0.503652,-15.65625 15.40625,-15.65625 15.9099,0 26.53125,0 26.53125,0 0,0 14.90625,0.24096 14.90625,-14.40625 0,-14.647206 0,-24.21875 0,-24.21875 0,-2e-6 2.26318,-14.65625 -27.03125,-14.65625 z M 85,75.9375 c 2.661429,-2e-6 4.8125,2.151071 4.8125,4.8125 2e-6,2.661429 -2.151071,4.8125 -4.8125,4.8125 -2.661429,2e-6 -4.8125,-2.151071 -4.8125,-4.8125 -2e-6,-2.661429 2.151071,-4.8125 4.8125,-4.8125 z"
             id="path8615" />
          <path
             inkscape:connector-curvature="0"
             id="path8620"
             d="m 100.5461,177.31485 c 28.03174,0 26.28125,-12.15625 26.28125,-12.15625 l -0.0312,-12.59375 -26.75,0 0,-3.78125 37.375,0 c 0,0 17.9375,2.03427 17.9375,-26.25001 10e-6,-28.284267 -15.65625,-27.281247 -15.65625,-27.281247 l -9.34375,0 0,13.124997 c 0,0 0.50366,15.65625 -15.40625,15.65625 -15.909902,0 -26.531252,0 -26.531252,0 0,0 -14.90625,-0.24096 -14.90625,14.40626 0,14.6472 0,24.21875 0,24.21875 0,0 -2.26318,14.65625 27.031252,14.65625 z m 14.75,-8.46875 c -2.66143,0 -4.8125,-2.15107 -4.8125,-4.8125 0,-2.66143 2.15107,-4.8125 4.8125,-4.8125 2.66143,0 4.8125,2.15107 4.8125,4.8125 1e-5,2.66143 -2.15107,4.8125 -4.8125,4.8125 z"
             style="color:#000000;display:inline;overflow:visible;visibility:visible;opacity:1;fill:url(#linearGradient11307);fill-opacity:1;fill-rule:nonzero;stroke:none;stroke-width:1;stroke-linecap:butt;stroke-linejoin:miter;stroke-miterlimit:4;stroke-dasharray:none;stroke-dashoffset:0;stroke-opacity:1;marker:none;marker-start:none;marker-mid:none;marker-end:none" />
        </g>
      </g>
    </g>
    <g
       id="g3905"
       transform="matrix(1.3437828,0,0,1.3437828,152.68186,-257.23678)"
       inkscape:export-xdpi="90"
       inkscape:export-ydpi="90">
      <path
         inkscape:connector-curvature="0"
         id="path3834"
         d="m 110.34023,323.40651 -20.005738,-20.57231 0,-19.43187 0,-19.43187 20.771678,-21.28103 20.77165,-21.28099 18.93359,0 18.93359,0 20.73461,21.31903 20.73461,21.31905 0,19.43322 0,19.43319 -20.04411,20.53294 -20.04411,20.53294 -20.39002,0 -20.39,0 -20.00575,-20.5723 z"
         style="fill:#f7df1e;fill-opacity:1" />
      <path
         inkscape:connector-curvature="0"
         id="path3617-6"
         d="m 129.88913,221.12168 -42.03125,42.03125 0,42.03125 42.03125,42.03124 42.03125,0 42.03125,-42.03124 0,-42.03125 -42.03125,-42.03125 z"
         style="fill:none;fill-rule:evenodd;stroke:#000000;stroke-width:8.40625px;stroke-linecap:butt;stroke-linejoin:miter;stroke-opacity:1" />
      <path
         id="path3820"
         d="m 161.2594,297.02286 c 2.81463,4.59567 6.47653,7.97368 12.95307,7.97368 5.44073,0 8.91632,-2.71926 8.91632,-6.47653 0,-4.50254 -3.57097,-6.09727 -9.55955,-8.71671 l -3.28262,-1.40843 c -9.47526,-4.03673 -15.76992,-9.09376 -15.76992,-19.78448 0,-9.84789 7.50345,-17.34469 19.22999,-17.34469 8.34851,0 14.3504,2.90556 18.67549,10.51327 l -10.22495,6.56527 c -2.25125,-4.03675 -4.67996,-5.62706 -8.45054,-5.62706 -3.846,0 -6.28357,2.4398 -6.28357,5.62706 0,3.93914 2.43979,5.53387 8.07349,7.97366 l 3.28262,1.40622 c 11.15649,4.78419 17.45559,9.66157 17.45559,20.62732 0,11.82189 -9.28673,18.29842 -21.75849,18.29842 -12.19452,0 -20.07283,-5.81113 -23.9277,-13.42771 z m -46.38485,1.13783 c 2.06273,3.65969 3.93916,6.75378 8.45055,6.75378 4.31397,0 7.03546,-1.68789 7.03546,-8.25093 l 0,-44.64816 13.1305,0 0,44.82561 c 0,13.59628 -7.97145,19.78449 -19.60703,19.78449 -10.51328,0 -16.60168,-5.44072 -19.69799,-11.99379 z"
         inkscape:connector-curvature="0" />
    </g>
    <path
       style="fill:none;fill-rule:evenodd;stroke:#000000;stroke-width:11.296175px;stroke-linecap:butt;stroke-linejoin:miter;stroke-opacity:1"
       d="m 215.73006,156.13777 -56.48088,56.48087 0,56.48087 56.48088,56.48086 56.48087,0 56.48088,-56.48086 0,-56.48087 -56.48088,-56.48087 z"
       id="path3617-7"
       inkscape:connector-curvature="0"
       inkscape:export-xdpi="90"
       inkscape:export-ydpi="90" />
    <path
       style="fill:none;fill-rule:evenodd;stroke:#000000;stroke-width:11.296175px;stroke-linecap:butt;stroke-linejoin:miter;stroke-opacity:1"
       d="m 98.213183,43.583999 -56.48088,56.480871 0,56.48088 56.48088,56.48085 56.480857,0 56.48086,-56.48085 0,-56.48088 -56.48086,-56.480871 z"
       id="path3617-7-9"
       inkscape:connector-curvature="0"
       inkscape:export-xdpi="90"
       inkscape:export-ydpi="90" />
    <g
       id="g4093"
       transform="matrix(1.3437828,0,0,1.3437828,-139.19169,-177.94589)"
       inkscape:export-xdpi="90"
       inkscape:export-ydpi="90">
      <path
         id="path4006"
         d="m 257.57234,263.906 4.40576,0 0,4.36745 4.06097,0 0,-4.36745 4.40576,0 0,13.21728 -4.40576,0 0,-4.40576 -4.02265,0 0,4.40576 -4.44408,0 m 18.69575,-8.81152 -3.88856,0 0,-4.40576 12.20204,0 0,4.40576 -3.90771,0 0,8.81152 -4.40577,0 m 10.24819,-13.21728 4.61647,0 2.83501,4.65478 2.83501,-4.65478 4.61647,0 0,13.21728 -4.40576,0 0,-6.55117 -3.08403,4.75056 -3.08403,-4.75056 0,6.55117 -4.32914,0 m 17.08669,-13.21728 4.40576,0 0,8.84983 6.24469,0 0,4.36745 -10.65045,0"
         inkscape:connector-curvature="0" />
      <path
         id="path4008"
         d="m 257.4191,354.12832 -6.32131,-70.9519 69.49609,0 -6.32131,70.91359 -28.4842,7.89206"
         inkscape:connector-curvature="0"
         style="fill:#e44d26" />
      <path
         id="path4010"
         d="m 285.84584,355.9481 0,-66.94842 28.40758,0 -5.421,60.53133"
         inkscape:connector-curvature="0"
         style="fill:#f16529" />
      <path
         id="path4012"
         d="m 264.00859,297.67712 21.83725,0 0,8.69659 -12.29782,0 0.80453,8.9073 11.49329,0 0,8.67743 -19.46197,0 m 0.38311,4.36745 8.7349,0 0.61297,6.95344 9.73099,2.60515 0,9.07969 -17.85291,-4.98042"
         inkscape:connector-curvature="0"
         style="fill:#ebebeb" />
      <path
         id="path4014"
         d="m 307.60647,297.67712 -21.79894,0 0,8.69659 20.9944,0 m -0.78537,8.9073 -20.20903,0 0,8.69658 10.72707,0 -1.01524,11.30174 -9.71183,2.60515 0,9.04138 17.81459,-4.94211"
         inkscape:connector-curvature="0"
         style="fill:#ffffff" />
      <path
         inkscape:connector-curvature="0"
         id="path4089"
         d="m 271.5082,357.99703 c -7.70365,-2.1373 -14.01797,-3.89734 -14.03182,-3.91119 -0.0292,-0.0292 -6.30034,-70.35605 -6.30038,-70.65449 l -3e-5,-0.19888 34.6891,0 34.6891,0 -0.0513,0.55243 c -0.0282,0.30384 -1.44957,16.24021 -3.15856,35.41416 l -3.10727,34.86172 -14.14013,3.91833 c -7.77707,2.15509 -14.23957,3.9151 -14.3611,3.91113 -0.12154,-0.004 -6.52396,-1.7559 -14.22762,-3.89321 z m 26.00933,-5.32174 c 6.16395,-1.72152 11.22841,-3.15125 11.25436,-3.1772 0.0457,-0.0457 5.42136,-59.78832 5.42377,-60.27731 l 0.001,-0.24306 -14.14213,0 -14.14214,0 0,4.33103 0,4.33102 -10.96015,0 c -8.70843,0 -10.96045,0.0227 -10.9616,0.11049 -0.003,0.2233 2.30906,25.83811 2.34948,26.03037 l 0.0418,0.19887 9.76523,0 9.76523,0 0,6.94017 0,6.94017 -0.19887,-0.0503 c -0.10938,-0.0276 -2.30694,-0.61516 -4.88346,-1.30559 l -4.68458,-1.25533 -0.0581,-0.66274 c -0.0319,-0.36451 -0.16811,-1.92559 -0.30259,-3.46907 l -0.24452,-2.80633 -4.40409,0 c -2.42224,0 -4.40315,0.0298 -4.40202,0.0663 0.0169,0.54102 1.23189,13.57149 1.26895,13.60855 0.0285,0.0285 4.05974,1.16983 8.9584,2.5364 l 8.90667,2.48466 0.0229,4.45001 0.0229,4.45001 0.19805,-0.0506 c 0.10893,-0.0278 5.24128,-1.45908 11.40524,-3.18059 z"
         style="fill:#f16529;fill-opacity:1" />
      <path
         inkscape:connector-curvature="0"
         id="path4091"
         d="m 274.3831,315.11857 c -0.0402,-0.13258 -0.76162,-8.24455 -0.7586,-8.52948 l 0.002,-0.19887 6.14299,0 6.14299,0 0,4.41942 0,4.41942 -5.74801,0 c -4.52165,0 -5.75516,-0.0236 -5.78148,-0.11049 z"
         style="fill:#f16529;fill-opacity:1" />
    </g>
    <path
       style="fill:none;fill-rule:evenodd;stroke:#000000;stroke-width:11.296175px;stroke-linecap:butt;stroke-linejoin:miter;stroke-opacity:1"
       d="m 329.09922,270.82301 -56.48087,56.48086 0,56.48088 56.48087,56.48086 56.48087,0 56.48087,-56.48086 0,-56.48088 -56.48087,-56.48086 z"
       id="path3617-7-9-0"
       inkscape:connector-curvature="0"
       inkscape:export-xdpi="90"
       inkscape:export-ydpi="90"
       onclick="" />
    <g
       id="g4207"
       transform="matrix(0.8795226,0,0,0.8795226,-26.319944,42.325028)"
       inkscape:export-xdpi="90"
       inkscape:export-ydpi="90">
      <g
         inkscape:label="Calque 1"
         id="layer1-3"
         transform="matrix(0.30803289,0,0,0.30803289,321.45035,193.47657)">
        <g
           id="g3013"
           transform="translate(119,276.3622)">
          <polygon
             id="polygon2989"
             points="404.321,470.819 255.778,512 107.644,470.877 74.633,100.62 437.367,100.62 "
             style="fill:#264de4" />
          <polygon
             id="polygon2991"
             points="404.27,130.894 256,130.894 256,480.523 376.03,447.246 "
             style="fill:#2965f1" />
          <polygon
             id="polygon2993"
             points="154.38,313.627 256,313.627 256,268.217 150.31,268.217 "
             style="fill:#ebebeb" />
          <polygon
             id="polygon2995"
             points="255.843,176.305 142.132,176.305 146.26,221.716 256,221.716 256,176.305 "
             style="fill:#ebebeb" />
          <polygon
             id="polygon2997"
             points="205.227,372.55 201.994,336.333 177.419,336.333 156.409,336.333 162.771,407.634 255.791,433.457 256,433.399 256,386.153 255.801,386.206 "
             style="fill:#ebebeb" />
          <path
             id="path2999"
             d="m 160,0 55,0 0,23 -32,0 0,23 32,0 0,23 -55,0 z"
             inkscape:connector-curvature="0" />
          <path
             id="path3001"
             d="m 226,0 55,0 0,20 -32,0 0,4 32,0 0,46 -55,0 0,-21 32,0 0,-4 -32,0 z"
             inkscape:connector-curvature="0" />
          <path
             id="path3003"
             d="m 292,0 55,0 0,20 -32,0 0,4 32,0 0,46 -55,0 0,-21 32,0 0,-4 -32,0 z"
             inkscape:connector-curvature="0" />
          <polygon
             id="polygon3005"
             points="360.291,280.411 361.399,268.217 369.597,176.305 255.843,176.305 255.843,221.716 319.831,221.716 315.699,268.217 255.843,268.217 255.843,313.627 311.761,313.627 306.49,372.521 255.843,386.191 255.843,433.435 348.937,407.634 349.62,399.962 "
             style="fill:#ffffff" />
        </g>
      </g>
      <path
         inkscape:connector-curvature="0"
         id="path4205"
         d="m 413.84291,429.82745 c -12.28592,-3.41894 -22.37238,-6.25165 -22.41435,-6.2949 -0.087,-0.0896 -10.12596,-112.52895 -10.12394,-113.39113 l 10e-4,-0.5625 55.72621,0 55.72621,0 -0.11357,0.9375 c -0.0625,0.51562 -2.35639,26.1265 -5.0976,56.91305 -2.74122,30.78656 -5.02872,56.02025 -5.08334,56.07487 -0.23147,0.23147 -45.08954,12.56369 -45.65791,12.55211 -0.34375,-0.007 -10.67711,-2.81005 -22.96303,-6.229 z m 42.83803,-8.70874 17,-4.71835 0.19067,-0.84822 c 0.10486,-0.46652 0.74923,-7.20447 1.43193,-14.97322 0.6827,-7.76875 1.52503,-17.30313 1.87184,-21.1875 1.17605,-13.17216 1.86656,-20.89743 3.62535,-40.55964 0.96537,-10.79217 1.75521,-19.65154 1.75521,-19.68749 0,-0.036 -10.2375,-0.0654 -22.75,-0.0654 l -22.75,0 0,6.875 0,6.875 -17.625,0 c -13.93486,0 -17.6244,0.0654 -17.62214,0.3125 0.002,0.17187 0.28154,3.29375 0.62214,6.9375 0.34061,3.64375 0.62057,6.70937 0.62214,6.8125 0.002,0.10312 7.65286,0.1875 17.00286,0.1875 l 17,0 0,7 0,7 -16.375,0 c -9.00625,0 -16.375,0.0491 -16.375,0.10906 0,0.06 0.28125,3.2283 0.625,7.04071 0.34375,3.81242 0.625,6.96959 0.625,7.01595 0,0.0464 7.0875,0.0843 15.75,0.0843 l 15.75,0 0,11.03125 0,11.03125 -0.8125,-0.16217 c -0.44687,-0.0892 -3.97034,-1.01559 -7.82992,-2.05866 l -7.01742,-1.89651 -0.48258,-5.53508 -0.48258,-5.53508 -7.0625,-0.0664 -7.0625,-0.0664 -0.009,0.5664 c -0.005,0.31151 0.4076,5.30064 0.91665,11.08696 l 0.92555,10.52057 14.39585,3.99614 14.39585,3.99614 0.0663,7.14606 0.0663,7.14607 1.3087,-0.3462 c 0.71979,-0.19042 8.95871,-2.46947 18.30871,-5.06456 z"
         style="fill:#2965f1;fill-opacity:1" />
    </g>
    <path
       style="fill:none;fill-opacity:1"
       d="m 74.528813,180.21769 -27.06486,-26.67692 0.0212,-25.53507 0.0212,-25.53506 26.37489,-26.368551 26.374887,-26.36855 26.20381,0 26.20379,0 26.36855,26.37489 26.36855,26.374891 0,25.53188 0,25.53186 -26.7108,26.70454 -26.71078,26.70453 -25.19282,-0.0308 -25.19282,-0.0308 -27.064867,-26.67691 z"
       id="path5023"
       inkscape:connector-curvature="0"
       inkscape:export-xdpi="90"
       inkscape:export-ydpi="90" />
    <g
       id="g5082"
       transform="matrix(0.78375577,0,0,0.78375577,19.279213,-261.43001)"
       inkscape:export-xdpi="90"
       inkscape:export-ydpi="90">
      <g
         id="g5084"
         transform="matrix(2,0,0,2,-140.15749,-493.22304)">
        <path
           id="path5086"
           d="m 99.973575,479.48404 14.204005,0 c 4.1693,0.0354 7.1903,1.23669 9.063,3.604 1.87263,2.36735 2.49096,5.60035 1.855,9.699 -0.24737,1.87268 -0.79504,3.71001 -1.643,5.512 -0.8127,1.80201 -1.94337,3.42734 -3.392,4.876 -1.7667,1.83733 -3.65703,3.00333 -5.671,3.498 -2.01403,0.49467 -4.09869,0.742 -6.254,0.742 l -6.36,0 -2.014005,10.07 -7.367,0 7.579,-38.001 0,0 m 6.201005,6.042 -3.18,15.9 c 0.21198,0.0353 0.42398,0.053 0.636,0.053 0.24732,0 0.49465,0 0.742,0 3.39198,0.0353 6.21864,-0.30033 8.48,-1.007 2.2613,-0.74199 3.78064,-3.32132 4.558,-7.738 0.63597,-3.70998 -3e-5,-5.84765 -1.908,-6.413 -1.87269,-0.56531 -4.22236,-0.83031 -7.049,-0.795 -0.42402,0.0353 -0.83035,0.053 -1.219,0.053 -0.35335,2e-5 -0.72435,2e-5 -1.113,0 l 0.053,-0.053"
           inkscape:connector-curvature="0" />
        <path
           id="path5088"
           d="m 133.48756,469.36104 7.31399,0 -2.06701,10.123 6.57201,0 c 3.60397,0.0707 6.28929,0.81269 8.056,2.226 1.80197,1.41336 2.33198,4.09869 1.59002,8.056 l -3.55099,17.649 -7.42,0 3.392,-16.854 c 0.35328,-1.76665 0.2473,-3.02098 -0.318,-3.763 -0.56536,-0.74198 -1.78435,-1.11298 -3.65702,-1.113 l -5.88302,-0.053 -4.346,21.783 -7.31396,0 7.63196,-38.054 0,0"
           inkscape:connector-curvature="0" />
        <path
           id="path5090"
           d="m 162.80658,479.48404 14.204,0 c 4.16928,0.0354 7.1903,1.23669 9.06299,3.604 1.87263,2.36735 2.49095,5.60035 1.85499,9.699 -0.24737,1.87268 -0.79503,3.71001 -1.643,5.512 -0.8127,1.80201 -1.94337,3.42734 -3.392,4.876 -1.76669,1.83733 -3.65703,3.00333 -5.67099,3.498 -2.01402,0.49467 -4.0987,0.742 -6.254,0.742 l -6.36001,0 -2.014,10.07 -7.36699,0 7.57901,-38.001 0,0 m 6.20098,6.042 -3.18,15.9 c 0.21199,0.0353 0.42399,0.053 0.636,0.053 0.24732,0 0.49465,0 0.742,0 3.39198,0.0353 6.21865,-0.30033 8.48,-1.007 2.26131,-0.74199 3.78064,-3.32132 4.558,-7.738 0.63597,-3.70998 -3e-5,-5.84765 -1.908,-6.413 -1.87269,-0.56531 -4.22236,-0.83031 -7.049,-0.795 -0.42402,0.0353 -0.83035,0.053 -1.219,0.053 -0.35335,2e-5 -0.72435,2e-5 -1.113,0 l 0.053,-0.053"
           inkscape:connector-curvature="0" />
      </g>
    </g>
    <path
       style="fill:none;fill-rule:evenodd;stroke:#000000;stroke-width:11.296175px;stroke-linecap:butt;stroke-linejoin:miter;stroke-opacity:1"
       d="m 211.94578,383.30517 -56.48087,56.48087 0,56.48088 56.48087,56.48087 56.48086,0 56.48085,-56.48087 0,-56.48088 -56.48085,-56.48087 z"
       id="path3617-7-9-7"
       inkscape:connector-curvature="0"
       inkscape:export-xdpi="90"
       inkscape:export-ydpi="90" />
    <text
       xml:space="preserve"
       style="font-style:normal;font-weight:normal;font-size:57.7951889px;line-height:125%;font-family:sans-serif;letter-spacing:0px;word-spacing:0px;fill:#000000;fill-opacity:1;stroke:none;stroke-width:1px;stroke-linecap:butt;stroke-linejoin:miter;stroke-opacity:1"
       x="239.97253"
       y="452.76724"
       id="text3443"
       sodipodi:linespacing="125%"><tspan
         sodipodi:role="line"
         x="193.39136"
         y="452.76724"
         id="tspan3445"><tspan
           x="193.39136"
           y="452.76724"
           style="fill:#f9f9f9"
           id="tspan3447">VB.</tspan></tspan><tspan
         sodipodi:role="line"
         x="193.48315"
         y="525.01123"
         id="tspan3451"><tspan
           x="193.48315"
           y="525.01123"
           style="fill:#f9f9f9"
           id="tspan3453">net</tspan></tspan></text>
    <path
       style="fill:none;fill-rule:evenodd;stroke:#000000;stroke-width:11.296175px;stroke-linecap:butt;stroke-linejoin:miter;stroke-opacity:1"
       d="m 441.89591,155.95693 -56.48087,56.48087 0,56.48087 56.48087,56.48087 56.48086,0 56.48085,-56.48087 0,-56.48087 -56.48085,-56.48087 z"
       id="path3617-7-9-7-7"
       inkscape:connector-curvature="0"
       inkscape:export-xdpi="90"
       inkscape:export-ydpi="90" />
    <flowRoot
       xml:space="preserve"
       id="flowRoot3645"
       style="font-style:normal;font-weight:normal;font-size:40px;line-height:125%;font-family:sans-serif;letter-spacing:0px;word-spacing:0px;fill:#000000;fill-opacity:1;stroke:none;stroke-width:1px;stroke-linecap:butt;stroke-linejoin:miter;stroke-opacity:1"><flowRegion
         id="flowRegion3647"><rect
           id="rect3649"
           width="135.41095"
           height="89.625786"
           x="364.8671"
           y="212.6729" /></flowRegion><flowPara
         id="flowPara3651">Node.jsfqsdfqfqdsfqsfds</flowPara></flowRoot>    <flowRoot
       xml:space="preserve"
       id="flowRoot3667"
       style="fill:black;stroke:none;stroke-opacity:1;stroke-width:1px;stroke-linejoin:miter;stroke-linecap:butt;fill-opacity:1;font-family:sans-serif;font-style:normal;font-weight:normal;font-size:40px;line-height:125%;letter-spacing:0px;word-spacing:0px"><flowRegion
         id="flowRegion3669"><rect
           id="rect3671"
           width="84.660461"
           height="52.125656"
           x="374.67502"
           y="236.89307" /></flowRegion><flowPara
         id="flowPara3673" /></flowRoot>    <path
       style="fill:none;fill-rule:evenodd;stroke:#000000;stroke-width:11.296175px;stroke-linecap:butt;stroke-linejoin:miter;stroke-opacity:1"
       d="m 553.61757,271.10183 -56.48087,56.48087 0,56.48087 56.48087,56.48087 56.48086,0 56.48085,-56.48087 0,-56.48087 -56.48085,-56.48087 z"
       id="path3617-7-9-7-7-0"
       inkscape:connector-curvature="0"
       inkscape:export-xdpi="90"
       inkscape:export-ydpi="90" />
    <g
       id="g4313"
       transform="matrix(0.36473802,0,0,0.36473802,504.96169,332.36445)">
      <path
         id="path4215"
         d="m 119.88,46.171 0.001,-0.005 c 0,0 -3.352,11.88 -3.352,11.88 0,0 3.3508,-11.875 3.3508,-11.875 z"
         inkscape:connector-curvature="0"
         style="fill:#131b28;fill-rule:nonzero" />
      <path
         id="path4217"
         d="m 137.12,71.962 c 0,0 -3.6938,-0.022 -3.6938,-0.022 0,0 3.6938,0.022 3.6938,0.022 z"
         inkscape:connector-curvature="0"
         style="fill:#131b28;fill-rule:nonzero" />
      <path
         id="path4219"
         d="m 136.17,89.703 0.004,0 c 0,0 -22.131,0.0806 -22.131,0.0806 0,0 22.128,-0.0806 22.128,-0.0806 z"
         inkscape:connector-curvature="0"
         style="fill:#131b28;fill-rule:nonzero" />
      <path
         id="path4221"
         d="m 140.81,71.984 c 0,0 -3.6951,-0.022 -3.6951,-0.022 0,0 3.6951,0.022 3.6951,0.022 z"
         inkscape:connector-curvature="0"
         style="fill:#131b28;fill-rule:nonzero" />
      <path
         id="path4223"
         d="m 138.11,88.195 c 0,0 3.855,-14.702 3.855,-14.702 0,0 -3.855,14.705 -3.855,14.705 l 0,-0.002 z"
         inkscape:connector-curvature="0"
         style="fill:#131b28;fill-rule:nonzero" />
      <path
         id="path4225"
         d="m 219.59,20.49 c 0,0 -7.1814,33.76 -7.1814,33.76 0,0 7.1814,-33.76 7.1814,-33.76 z"
         inkscape:connector-curvature="0"
         style="fill:#131b28;fill-rule:nonzero" />
      <path
         id="path4227"
         d="m 201.13,20.49 c 0,0 -5.4517,25.22 -5.4517,25.22 0,0 5.4517,-25.222 5.4517,-25.222 l 0,0.002 z"
         inkscape:connector-curvature="0"
         style="fill:#131b28;fill-rule:nonzero" />
      <path
         id="path4229"
         d="m 218.36,18.971 -15.356,0 c -0.85205,0 -1.698,0.68359 -1.8799,1.5161 0,0 -5.4516,25.222 -5.4516,25.222 0,0 -5.4517,25.222 -5.4517,25.222 -0.18066,0.83251 -1.0254,1.5137 -1.8774,1.5137 l -10.869,0 c -10.753,0 -9.5093,-7.4365 -7.3071,-17.627 0.022,-0.1025 0.044,-0.20263 0.0659,-0.30761 0,0 0.24169,-1.2842 0.24169,-1.2842 0.0146,-0.083 0.0317,-0.16603 0.0451,-0.2417 0,0 0.49072,-2.6148 0.49072,-2.6148 0,0 0.52612,-2.8027 0.52612,-2.8027 0.15992,-0.84473 0.40283,-2.0801 0.56153,-2.8564 0,0 2.478,-12.109 2.478,-12.109 0,0 2.4805,-12.109 2.4805,-12.109 0.1709,-0.83496 -0.38819,-1.521 -1.2402,-1.521 l -15.762,0 c -0.85206,0 -1.6956,0.68604 -1.8701,1.5186 0,0 -3.3887,16.079 -3.3887,16.079 0,0 -3.3887,16.077 -3.3887,16.077 -0.003,0.007 -0.004,0.0171 -0.005,0.0244 0,0 -0.31494,1.4942 -0.31494,1.4942 -3.9038,17.822 -2.8686,34.817 18.347,35.349 0.3467,0.01 0.61525,0.0125 0.61525,0.0125 l 33.302,0 c 0.85206,0 1.6956,-0.6836 1.8738,-1.5186 0,0 7.1814,-33.757 7.1814,-33.757 0,0 7.1814,-33.76 7.1814,-33.76 0.17701,-0.83497 -0.37598,-1.5186 -1.228,-1.5186 z"
         inkscape:connector-curvature="0"
         style="fill:#131b28;fill-rule:nonzero" />
      <path
         id="path4231"
         d="m 279.62,72.621 c 0.85327,0 1.4111,0.6836 1.2402,1.5186 0,0 -1.4917,7.2876 -1.4917,7.2876"
         inkscape:connector-curvature="0"
         style="fill:#131b28;fill-rule:nonzero" />
      <path
         id="path4233"
         d="m 277.88,88.719 c 0,0 1.4905,-7.2925 1.4905,-7.2925 0,0 -1.4917,7.2949 -1.4917,7.2949 0,-0.002 9.9e-4,-0.002 9.9e-4,-0.002 z"
         inkscape:connector-curvature="0"
         style="fill:#131b28;fill-rule:nonzero" />
      <path
         id="path4235"
         d="m 276.01,90.253 c 0.002,0 0.005,-0.002 0.007,-0.002 -4.519,0.0366 -18.099,0.13916 -28.306,0.13916 12.422,0 28.298,-0.13672 28.298,-0.13672 z"
         inkscape:connector-curvature="0"
         style="fill:#131b28;fill-rule:nonzero" />
      <path
         id="path4237"
         d="m 238.55,63.234 c -0.0125,-0.79835 0.896,-2.1729 1.7493,-2.1729 0,0 -1.9177,-0.0317 -1.9177,-0.0317 -0.86426,8.6914 0.16845,2.2046 0.16845,2.2046 z"
         inkscape:connector-curvature="0"
         style="fill:#131b28;fill-rule:nonzero" />
      <path
         id="path4239"
         d="m 249.11,90.387 c -0.0976,0 -0.19775,0 -0.29542,0.002 0.0976,-0.002 0.19777,-0.002 0.29542,-0.002 z"
         inkscape:connector-curvature="0"
         style="fill:#131b28;fill-rule:nonzero" />
      <path
         id="path4241"
         d="m 279.62,72.621 c 0.85327,0 1.4111,0.6836 1.2402,1.5186 0,0 -1.4917,7.2876 -1.4917,7.2876 0,0 -0.24293,1.189 -0.24293,1.189"
         inkscape:connector-curvature="0"
         style="fill:#131b28;fill-rule:nonzero" />
      <path
         id="path4243"
         d="m 256.38,90.37 -0.0623,0 0.0623,0 z"
         inkscape:connector-curvature="0"
         style="fill:#131b28;fill-rule:nonzero" />
      <path
         id="path4245"
         d="m 252.61,90.382 -0.21852,0 0.21852,0 z"
         inkscape:connector-curvature="0"
         style="fill:#131b28;fill-rule:nonzero" />
      <path
         id="path4247"
         d="m 251.46,90.385 c -0.12201,0 -0.2417,0 -0.36134,0.002 0.11963,-0.002 0.23927,-0.002 0.36134,-0.002 z"
         inkscape:connector-curvature="0"
         style="fill:#131b28;fill-rule:nonzero" />
      <path
         id="path4249"
         d="m 250.29,90.387 -0.31737,0 0.31737,0 z"
         inkscape:connector-curvature="0"
         style="fill:#131b28;fill-rule:nonzero" />
      <path
         id="path4251"
         d="m 252.39,90.382 c -0.31127,0 -0.62255,0.002 -0.93016,0.002 0.30761,0 0.61889,-0.002 0.93016,-0.002 z"
         inkscape:connector-curvature="0"
         style="fill:#131b28;fill-rule:nonzero" />
      <path
         id="path4253"
         d="m 256.32,90.37 c -1.2427,0.005 -2.4829,0.01 -3.7048,0.0125 1.2219,-0.002 2.4634,-0.007 3.7048,-0.0125 z"
         inkscape:connector-curvature="0"
         style="fill:#131b28;fill-rule:nonzero" />
      <path
         id="path4255"
         d="m 276.02,90.25 0.001,0 c -3.3118,0.0269 -11.49,0.0879 -19.646,0.11963 8.1518,-0.0292 16.332,-0.0927 19.645,-0.11963 z"
         inkscape:connector-curvature="0"
         style="fill:#131b28;fill-rule:nonzero" />
      <path
         id="path4257"
         d="m 277.88,88.722 c 0,0 1.2488,-6.106 1.2488,-6.106 0,0 -1.25,6.1108 -1.25,6.1108 0,-0.002 10e-4,-0.002 10e-4,-0.005 z"
         inkscape:connector-curvature="0"
         style="fill:#131b28;fill-rule:nonzero" />
      <path
         id="path4259"
         d="m 251.1,90.387 -0.81054,0 0.81054,0 z"
         inkscape:connector-curvature="0"
         style="fill:#131b28;fill-rule:nonzero" />
      <path
         id="path4261"
         d="m 248.81,90.389 -1.0962,0 1.0962,0 z"
         inkscape:connector-curvature="0"
         style="fill:#131b28;fill-rule:nonzero" />
      <path
         id="path4263"
         d="m 249.97,90.387 -0.86426,0 0.86426,0 z"
         inkscape:connector-curvature="0"
         style="fill:#131b28;fill-rule:nonzero" />
      <path
         id="path4265"
         d="m 25.344,63.417 c 0,0 2.3852,-10.574 2.3852,-10.574 0,0 -2.727,12.087 -2.727,12.087 0,0 -2.6172,12.312 -2.6172,12.312 0,0 2.2937,-10.793 2.2937,-10.793 0.177,-0.83497 0.4773,-2.1997 0.66529,-3.0322 z"
         inkscape:connector-curvature="0"
         style="fill:#131b28;fill-rule:nonzero" />
      <path
         id="path4267"
         d="m 53.894,18.793 -16.864,0 c -0.85326,0 -1.7041,0.68115 -1.8945,1.5112 0,0 -1.5991,7.0581 -1.5991,7.0581 0,0 -1.5991,7.0606 -1.5991,7.0606 -0.18799,0.83008 0.35523,1.5112 1.2085,1.5112 l 16.995,0 c 0.85205,0 1.6992,-0.68115 1.8823,-1.5137 0,0 1.5454,-7.0581 1.5454,-7.0581 0,0 1.5454,-7.0532 1.5454,-7.0532 l 0,-0.002 c 0.18189,-0.83253 -0.36621,-1.5137 -1.2195,-1.5137 z"
         inkscape:connector-curvature="0"
         style="fill:#131b28;fill-rule:nonzero" />
      <path
         id="path4269"
         d="m 50.224,42.272 0,-0.002 c 0,0 -4.9463,22.883 -4.9463,22.883 0,0 4.9463,-22.881 4.9463,-22.881 z"
         inkscape:connector-curvature="0"
         style="fill:#131b28;fill-rule:nonzero" />
      <path
         id="path4271"
         d="m 1.2338,118.09 c 0,0 8.501,0.10988 13.905,0.10988 -4.1052,0 -10.885,-0.0756 -13.912,-0.11225 0.003,0 0.005,0.002 0.008,0.002 z"
         inkscape:connector-curvature="0"
         style="fill:#131b28;fill-rule:nonzero" />
      <path
         id="path4273"
         d="m 30.114,42.269 c 0,0 -2.3877,10.574 -2.3877,10.574 0,0 2.3877,-10.574 2.3877,-10.574 z"
         inkscape:connector-curvature="0"
         style="fill:#131b28;fill-rule:nonzero" />
      <path
         id="path4275"
         d="m 49.004,40.756 -16.997,0 c -0.85205,0 -1.7041,0.68117 -1.8921,1.5137 0,0 -2.3877,10.574 -2.3877,10.574 0,0 -2.3852,10.574 -2.3852,10.574 -0.18799,0.83253 -0.48829,2.1973 -0.66529,3.0322 0,0 -2.2937,10.793 -2.2937,10.793 0,0 -2.2925,10.793 -2.2925,10.793 -0.17822,0.83252 -0.54443,2.1777 -0.81787,2.9858 0,0 -3.175,9.4482 -8.5132,9.3408 -0.22705,-0.005 -0.448,-0.007 -0.6665,-0.0125 -2.5867,-0.0489 -4.6191,-0.0855 -4.6191,-0.0855 l -0.004,0 c -0.85083,-0.0125 -1.7066,0.65185 -1.9055,1.4795 0,0 -1.7627,7.4097 -1.7627,7.4097 0,0 -1.7603,7.4072 -1.7603,7.4072 -0.19775,0.82762 0.33692,1.5112 1.1841,1.5259 3.0274,0.0366 9.8071,0.11225 13.912,0.11225 13.334,0 20.363,-7.3877 24.869,-28.647 0,0 5.2734,-24.399 5.2734,-24.399 0,0 4.9463,-22.883 4.9463,-22.883 0.17945,-0.83251 -0.3711,-1.5137 -1.2232,-1.5137 z"
         inkscape:connector-curvature="0"
         style="fill:#131b28;fill-rule:nonzero" />
      <path
         id="path4277"
         d="m 290.45,89.525 c -0.85205,0 -1.405,-0.6836 -1.2256,-1.5186 0,0 12.786,-59.89 12.786,-59.89"
         inkscape:connector-curvature="0"
         style="fill:#131b28;fill-rule:nonzero" />
      <path
         id="path4279"
         d="m 308.22,88.004 c 0,0 5.1709,-25.562 5.1709,-25.562 0,0 -5.1709,25.562 -5.1709,25.562 z"
         inkscape:connector-curvature="0"
         style="fill:#131b28;fill-rule:nonzero" />
      <path
         id="path4281"
         d="m 289.41,88.766 c -0.10375,-0.41749 -0.0428,-1.4404 0.13793,-2.2754 0,0 6.0681,-28.428 6.0681,-28.428 0,0 -6.3928,29.944 -6.3928,29.944 -0.17944,0.83495 0.37354,1.5186 1.2256,1.5186 l 1.5528,0 c -0.85328,0 -2.489,-0.3418 -2.5916,-0.75927 z"
         inkscape:connector-curvature="0"
         style="fill:#131b28;fill-rule:nonzero" />
      <path
         id="path4283"
         d="m 307.21,89.183 c -0.46388,0.18799 -1.543,0.3418 -2.3962,0.3418 l 1.5527,0 c 0.85205,0 1.6894,-0.6836 1.8579,-1.521 0,0 0.30761,-1.5186 0.30761,-1.5186 -0.16967,0.83496 -0.85692,2.5098 -1.322,2.6978 z"
         inkscape:connector-curvature="0"
         style="fill:#131b28;fill-rule:nonzero" />
      <path
         id="path4285"
         d="m 310.81,75.223 c 0,0 2.2827,-11.282 2.2827,-11.282 -10e-4,0.007 -0.002,0.0171 -0.004,0.022 0,0 -2.279,11.26 -2.279,11.26 z"
         inkscape:connector-curvature="0"
         style="fill:#131b28;fill-rule:nonzero" />
      <path
         id="path4287"
         d="m 361.26,32.128 c 0,0 0.70434,2.9102 0.70434,2.9102 0.1941,0.83251 -0.34424,1.5088 -1.1951,1.5112"
         inkscape:connector-curvature="0"
         style="fill:#131b28;fill-rule:nonzero" />
      <path
         id="path4289"
         d="m 308.53,86.486 c 0,0 2.2766,-11.262 2.2766,-11.262 0,0 -2.2766,11.262 -2.2766,11.262 z"
         inkscape:connector-curvature="0"
         style="fill:#131b28;fill-rule:nonzero" />
      <path
         id="path4291"
         d="m 360.56,29.147 c 0,0 0.69703,2.981 0.69703,2.981 0,0 -0.69703,-2.981 -0.69703,-2.981 z"
         inkscape:connector-curvature="0"
         style="fill:#131b28;fill-rule:nonzero" />
      <path
         id="path4293"
         d="m 313.09,63.942 c 0.16969,-0.83496 0.45045,-2.1875 0.62746,-3.0151 0,0 2.4377,-11.421 2.4377,-11.421 0,0 -2.7612,12.937 -2.7612,12.937 0,0 -0.30397,1.499 -0.30397,1.499 z"
         inkscape:connector-curvature="0"
         style="fill:#131b28;fill-rule:nonzero" />
      <path
         id="path4295"
         d="m 302.22,27.135 c -0.16967,0.80567 -0.38696,1.8237 -0.53101,2.4976 0,0 -6.0681,28.43 -6.0681,28.43 0,0 6.3928,-29.946 6.3928,-29.946 0,0 0.2063,-0.98145 0.2063,-0.98145 z"
         inkscape:connector-curvature="0"
         style="fill:#131b28;fill-rule:nonzero" />
      <path
         id="path4297"
         d="m 361.96,35.038 c 0,0 -0.70434,-2.9102 -0.70434,-2.9102 0,0 -0.69703,-2.981 -0.69703,-2.981 0,0 -0.35278,-1.5088 -0.35278,-1.5088 -1.3806,-5.3638 -5.4334,-8.4595 -14.233,-8.4595 0,0 -13.7,-0.0146 -13.7,-0.0146 0,0 -12.617,-0.0146 -12.617,-0.0146 l -14.197,0 c -0.85205,0 -1.6956,0.68115 -1.8713,1.5161 l -0.001,0 c 0,0 -0.62743,2.9663 -0.62743,2.9663 0,0 -0.74096,3.5034 -0.74096,3.5034 0,0 -0.2063,0.98145 -0.2063,0.98145 0,0 -6.3928,29.946 -6.3928,29.946 0,0 -6.0681,28.428 -6.0681,28.428 -0.18065,0.83496 -0.24169,1.8579 -0.13792,2.2754 0.1025,0.41747 1.7383,0.75927 2.5915,0.75927 l 12.808,0 c 0.85327,0 1.9324,-0.15381 2.3962,-0.3418 0.46508,-0.18799 1.1523,-1.8628 1.322,-2.6978 0,0 2.2766,-11.262 2.2766,-11.262 0,0 2.279,-11.26 2.279,-11.26 10e-4,-0.005 0.002,-0.0146 0.004,-0.022 0,0 0.30396,-1.499 0.30396,-1.499 0,0 2.7612,-12.937 2.7612,-12.937 0,0 2.439,-11.426 2.439,-11.426 0.18068,-0.83007 1.0205,-1.5088 1.8713,-1.5112 0,0 40.3,-0.0195 40.3,-0.0195 0.85083,-0.002 1.3892,-0.67872 1.1951,-1.5112 z"
         inkscape:connector-curvature="0"
         style="fill:#131b28;fill-rule:nonzero" />
      <path
         id="path4299"
         d="m 413.84,8.7244 c -0.85326,0.006 -2.2485,0.0113 -3.1018,0.0113 l -12.899,0 c -0.85328,0 -1.9458,0.57618 -2.4268,1.2805 0,0 -28.523,41.787 -28.523,41.787 -0.48218,0.70557 -1.0315,0.60059 -1.2207,-0.22949 0,0 -2.0984,-9.2065 -2.0984,-9.2065 -0.18921,-0.83252 -1.0437,-1.5112 -1.8958,-1.5112 l -18.337,0 c -0.85327,0 -1.3586,0.66895 -1.1255,1.4893 0,0 8.2166,28.784 8.2166,28.784 0.23437,0.82032 0.25147,2.168 0.0403,2.9932 0,0 -3.5815,13.931 -3.5815,13.931 -0.2124,0.82764 0.3125,1.5039 1.1658,1.5039 l 18.123,0 c 0.85205,0 1.7236,-0.67627 1.9348,-1.5039 0,0 3.5828,-13.931 3.5828,-13.931 0.21119,-0.82519 0.80445,-2.0605 1.3184,-2.7417 0,0 46.306,-61.459 46.306,-61.459 0.51393,-0.68115 0.2356,-1.2354 -0.61645,-1.2292 0,0 -4.8608,0.0317 -4.8608,0.0317 z"
         inkscape:connector-curvature="0"
         style="fill:#131b28;fill-rule:nonzero" />
      <path
         id="path4301"
         d="m 268.16,44.774 c 0,0 -0.001,-0.0171 -0.001,-0.0171 -0.10737,0.92528 -0.96069,1.604 -1.8128,1.604 l -23.248,0 c -0.80323,0 -1.2122,-0.54688 -1.0938,-1.2207 0.007,-0.0195 0.01,-0.0366 0.022,-0.0537 0,0 -0.008,0.002 -0.0146,0.007 0.005,-0.0269 0.005,-0.0512 0.0125,-0.0781 0,0 0.044,-0.16358 0.10625,-0.39552 2.2204,-5.9033 6.7432,-9.7778 15.243,-9.7778 9.5691,0 11.437,4.6753 10.787,9.9316 z M 261.34,17.94 c -29.841,0 -36.912,18.113 -40.879,36.394 -3.9673,18.633 -3.6255,36.055 27.253,36.055 l 1.0962,0 c 0.0976,-0.002 0.19777,-0.002 0.29542,-0.002 l 1.9922,0 c 0.11963,-0.002 0.23927,-0.002 0.36133,-0.002 0.30762,0 0.6189,-0.002 0.93017,-0.002 l 0.21852,0 c 1.2219,-0.002 2.4622,-0.008 3.7048,-0.0125 l 0.0623,0 c 8.1555,-0.0317 16.334,-0.0927 19.647,-0.11962 0.84717,-0.0125 1.676,-0.6958 1.8506,-1.5234 0,0 1.25,-6.1108 1.25,-6.1108 0,0 0.24293,-1.189 0.24293,-1.189 0,0 1.4917,-7.2876 1.4917,-7.2876 0.1709,-0.83496 -0.38696,-1.5186 -1.2402,-1.5186 l -27.761,0 c -11.041,0 -14.32,-2.9346 -13.112,-11.56 l 44.377,0 c 0,0 -0.004,0.005 -0.004,0.005 0.0113,0 0.0208,-0.005 0.0305,-0.005 0.70556,-0.0125 1.3574,-0.49804 1.6162,-1.145 0.0489,-0.1245 0.0904,-0.25391 0.10737,-0.38818 0,0 -0.005,0.005 -0.005,0.005 6.5894,-24.854 4.6997,-41.592 -23.528,-41.592 z"
         inkscape:connector-curvature="0"
         style="fill:#131b28;fill-rule:nonzero" />
      <path
         id="path4303"
         d="m 120.3,44.679 c 0,0 -0.41993,1.4868 -0.41993,1.4868 0,0.005 -0.001,0.005 -0.001,0.005 0,0 -3.3508,11.875 -3.3508,11.875 0,0 -3.3496,11.873 -3.3496,11.873 -0.23193,0.82031 -1.1182,1.4917 -1.9727,1.4917 l -17.736,0 c -13.453,0 -16.729,-10.522 -13.453,-26.042 3.2752,-15.874 9.6973,-25.742 22.938,-26.741 18.094,-1.3648 21.714,11.362 17.345,26.052 z m 12.163,25.818 c 0,0 8.3618,-20.303 10.261,-32.031 C 145.324,22.767 137.464,0 107.104,0 76.915,0 63.807,21.737 58.805,45.367 c -5.0012,23.801 1.5515,44.675 31.567,44.504 0,0 23.679,-0.0879 23.679,-0.0879 0,0 22.131,-0.0806 22.131,-0.0806 0.85205,-0.007 1.7236,-0.6836 1.9409,-1.5064 0,0 3.855,-14.705 3.855,-14.705 0.21485,-0.8252 -0.30639,-1.5039 -1.1584,-1.5088 0,0 -3.6951,-0.022 -3.6951,-0.022 0,0 -3.6938,-0.022 -3.6938,-0.022 -0.7251,-0.005 -1.1401,-0.47364 -1.0522,-1.0962 0.0159,-0.11225 0.0415,-0.22705 0.0904,-0.34668 z"
         inkscape:connector-curvature="0"
         style="fill:#131b28;fill-rule:nonzero" />
      <path
         id="path4305"
         d="m 281.9,56.908 c 0,0.56153 -0.45532,1.0181 -1.0181,1.0181 -0.56152,0 -1.0181,-0.45654 -1.0181,-1.0181 0,-0.56152 0.45655,-1.0156 1.0181,-1.0156 0.56274,0 1.0181,0.4541 1.0181,1.0156 z"
         inkscape:connector-curvature="0"
         style="fill:#131b28;fill-rule:nonzero" />
    </g>
    <g
       id="g4049"
       transform="matrix(0.33159939,0,0,0.33159942,396.68901,197.15105)">
      <path
         id="path4005"
         d="m 218.647,270.93 c -1.46,0 -2.91,-0.383 -4.19,-1.12 l -13.337,-7.896 c -1.992,-1.114 -1.02,-1.508 -0.363,-1.735 2.656,-0.93 3.195,-1.14 6.03,-2.75 0.298,-0.17 0.688,-0.11 0.993,0.07 l 10.246,6.08 c 0.37,0.2 0.895,0.2 1.238,0 l 39.95,-23.06 c 0.37,-0.21 0.61,-0.64 0.61,-1.08 l 0,-46.1 c 0,-0.46 -0.24,-0.87 -0.618,-1.1 l -39.934,-23.04 c -0.37,-0.22 -0.86,-0.22 -1.23,0 l -39.926,23.04 c -0.387,0.22 -0.633,0.65 -0.633,1.09 l 0,46.1 c 0,0.44 0.24,0.86 0.62,1.07 l 10.94,6.32 c 5.94,2.97 9.57,-0.53 9.57,-4.05 l 0,-45.5 c 0,-0.65 0.51,-1.15 1.16,-1.15 l 5.06,0 c 0.63,0 1.15,0.5 1.15,1.15 l 0,45.52 c 0,7.92 -4.32,12.47 -11.83,12.47 -2.31,0 -4.13,0 -9.21,-2.5 l -10.48,-6.04 c -2.59,-1.5 -4.19,-4.3 -4.19,-7.29 l 0,-46.1 c 0,-3 1.6,-5.8 4.19,-7.28 l 39.99,-23.07 c 2.53,-1.43 5.89,-1.43 8.4,0 l 39.94,23.08 c 2.58,1.49 4.19,4.28 4.19,7.28 l 0,46.1 c 0,2.99 -1.61,5.78 -4.19,7.28 l -39.94,23.07 c -1.28,0.74 -2.73,1.12 -4.21,1.12"
         inkscape:connector-curvature="0"
         style="fill:#689f63" />
      <path
         id="path4007"
         d="m 230.987,239.164 c -17.48,0 -21.145,-8.024 -21.145,-14.754 0,-0.64 0.516,-1.15 1.157,-1.15 l 5.16,0 c 0.57,0 1.05,0.415 1.14,0.978 0.78,5.258 3.1,7.91 13.67,7.91 8.42,0 12,-1.902 12,-6.367 0,-2.57 -1.02,-4.48 -14.1,-5.76 -10.94,-1.08 -17.7,-3.49 -17.7,-12.24 0,-8.06 6.8,-12.86 18.19,-12.86 12.79,0 19.13,4.44 19.93,13.98 0.03,0.33 -0.09,0.65 -0.31,0.89 -0.22,0.23 -0.53,0.37 -0.85,0.37 l -5.19,0 c -0.54,0 -1.01,-0.38 -1.12,-0.9 -1.25,-5.53 -4.27,-7.3 -12.48,-7.3 -9.19,0 -10.26,3.2 -10.26,5.6 0,2.91 1.26,3.76 13.66,5.4 12.28,1.63 18.11,3.93 18.11,12.56 0,8.7 -7.26,13.69 -19.92,13.69 m 48.66,-48.89 1.34,0 c 1.1,0 1.31,-0.77 1.31,-1.22 0,-1.18 -0.81,-1.18 -1.26,-1.18 l -1.38,0 z m -1.63,-3.78 2.97,0 c 1.02,0 3.02,0 3.02,2.28 0,1.59 -1.02,1.92 -1.63,2.12 1.19,0.08 1.27,0.86 1.43,1.96 0.08,0.69 0.21,1.88 0.45,2.28 l -1.83,0 c -0.05,-0.4 -0.33,-2.6 -0.33,-2.72 -0.12,-0.49 -0.29,-0.73 -0.9,-0.73 l -1.51,0 0,3.46 -1.67,0 z m -3.57,4.3 c 0,3.58 2.89,6.48 6.44,6.48 3.58,0 6.47,-2.96 6.47,-6.48 0,-3.59 -2.93,-6.44 -6.48,-6.44 -3.5,0 -6.44,2.81 -6.44,6.43 m 14.16,0.03 c 0,4.24 -3.47,7.7 -7.7,7.7 -4.2,0 -7.7,-3.42 -7.7,-7.7 0,-4.36 3.58,-7.7 7.7,-7.7 4.15,0 7.69,3.35 7.69,7.7"
         inkscape:connector-curvature="0"
         style="fill:#689f63" />
      <path
         id="path4009"
         d="m 94.936,90.55 c 0,-1.84 -0.97,-3.53 -2.558,-4.445 L 50.022,61.735 c -0.715,-0.42 -1.516,-0.64 -2.328,-0.67 l -0.438,0 c -0.812,0.03 -1.613,0.25 -2.34,0.67 L 2.562,86.105 C 0.984,87.025 0,88.715 0,90.555 l 0.093,65.64 c 0,0.91 0.47,1.76 1.27,2.21 0.78,0.48 1.76,0.48 2.54,0 l 25.18,-14.42 c 1.59,-0.946 2.56,-2.618 2.56,-4.44 l 0,-30.665 c 0,-1.83 0.97,-3.52 2.555,-4.43 l 10.72,-6.174 c 0.796,-0.46 1.67,-0.688 2.56,-0.688 0.876,0 1.77,0.226 2.544,0.687 l 10.715,6.172 c 1.586,0.91 2.56,2.6 2.56,4.43 l 0,30.663 c 0,1.82 0.983,3.5 2.565,4.44 l 25.164,14.41 c 0.79,0.47 1.773,0.47 2.56,0 0.776,-0.45 1.268,-1.3 1.268,-2.21 z m 199.868,34.176 c 0,0.457 -0.243,0.88 -0.64,1.106 l -14.548,8.386 c -0.395,0.227 -0.883,0.227 -1.277,0 l -14.55,-8.386 c -0.4,-0.227 -0.64,-0.65 -0.64,-1.106 l 0,-16.796 c 0,-0.458 0.24,-0.88 0.63,-1.11 l 14.54,-8.4 c 0.4,-0.23 0.89,-0.23 1.29,0 l 14.55,8.4 c 0.4,0.23 0.64,0.652 0.64,1.11 z m 3.93,-124.402 c -0.794,-0.442 -1.76,-0.43 -2.544,0.027 -0.78,0.46 -1.262,1.3 -1.262,2.21 l 0,65 c 0,0.64 -0.34,1.23 -0.894,1.55 -0.55,0.32 -1.235,0.32 -1.79,0 L 281.634,63 c -1.58,-0.914 -3.526,-0.914 -5.112,0 l -42.37,24.453 c -1.583,0.91 -2.56,2.6 -2.56,4.42 l 0,48.92 c 0,1.83 0.977,3.51 2.56,4.43 l 42.37,24.47 c 1.582,0.91 3.53,0.91 5.117,0 l 42.37,-24.48 c 1.58,-0.92 2.56,-2.6 2.56,-4.43 l 0,-121.92 c 0,-1.856 -1.01,-3.563 -2.63,-4.47 z m 141.093,107.164 c 1.574,-0.914 2.543,-2.602 2.543,-4.422 l 0,-11.856 c 0,-1.824 -0.97,-3.507 -2.547,-4.425 l -42.1,-24.44 c -1.59,-0.92 -3.54,-0.92 -5.13,0 l -42.36,24.45 c -1.59,0.92 -2.56,2.6 -2.56,4.43 l 0,48.9 c 0,1.84 0.99,3.54 2.58,4.45 l 42.09,23.99 c 1.55,0.89 3.45,0.9 5.02,0.03 l 25.46,-14.15 c 0.8,-0.45 1.31,-1.3 1.31,-2.22 0,-0.92 -0.49,-1.78 -1.29,-2.23 l -42.62,-24.46 c -0.8,-0.45 -1.29,-1.3 -1.29,-2.21 l 0,-15.34 c 0,-0.916 0.48,-1.76 1.28,-2.216 l 13.26,-7.65 c 0.79,-0.46 1.76,-0.46 2.55,0 l 13.27,7.65 c 0.79,0.45 1.28,1.3 1.28,2.21 l 0,12.06 c 0,0.91 0.49,1.76 1.28,2.22 0.79,0.45 1.77,0.45 2.56,-0.01 z m 0,0"
         inkscape:connector-curvature="0"
         style="fill:#ffffff;fill-rule:evenodd" />
      <path
         id="path4011"
         d="m 394.538,105.2 c 0.3,-0.177 0.676,-0.177 0.98,0 l 8.13,4.69 c 0.304,0.176 0.49,0.5 0.49,0.85 l 0,9.39 c 0,0.35 -0.186,0.674 -0.49,0.85 l -8.13,4.69 c -0.304,0.177 -0.68,0.177 -0.98,0 l -8.125,-4.69 c -0.31,-0.176 -0.5,-0.5 -0.5,-0.85 l 0,-9.39 c 0,-0.35 0.18,-0.674 0.49,-0.85 z m 0,0"
         inkscape:connector-curvature="0"
         style="fill:#689f63;fill-rule:evenodd" />
      <g
         id="g4013"
         transform="translate(-78.306,-164.016)"
         clip-path="url(#a-2)">
        <path
           style="fill:url(#b-7)"
           id="path4015"
           d="m 331.363,246.793 -118.715,-58.19 -60.87,124.174 118.712,58.193 z m 0,0"
           inkscape:connector-curvature="0" />
      </g>
      <g
         id="g4017"
         transform="translate(-78.306,-164.016)"
         clip-path="url(#c-0)">
        <path
           style="fill:url(#d-9)"
           id="path4019"
           d="m 144.07,264.004 83.825,113.453 110.86,-81.906 -83.83,-113.45 z m 0,0"
           inkscape:connector-curvature="0" />
      </g>
      <g
         id="g4021"
         transform="translate(-78.306,-164.016)"
         clip-path="url(#e-3)">
        <path
           style="fill:url(#f-6)"
           id="path4023"
           d="m 197.02,225.934 0,107.43 91.683,0 0,-107.43 z m 0,0"
           inkscape:connector-curvature="0" />
      </g>
    </g>
    <path
       style="fill:none;fill-rule:evenodd;stroke:#000000;stroke-width:11.296175px;stroke-linecap:butt;stroke-linejoin:miter;stroke-opacity:1"
       d="m 558.52558,46.428174 -56.48088,56.480866 0,56.48087 56.48088,56.48087 56.48086,0 56.48085,-56.48087 0,-56.48087 -56.48085,-56.480866 z"
       id="path3617-7-9-7-7-0-6"
       inkscape:connector-curvature="0"
       inkscape:export-xdpi="90"
       inkscape:export-ydpi="90" />
    <g
       id="g48"
       transform="matrix(0.78020778,0,0,0.78020778,521.30315,68.999067)">
      <polygon
         points="13.621,138.311 83.331,176.625 153.4,137.792 166.462,29.46 83.243,0.875 0.554,29.975 "
         id="polygon50"
         style="fill:#b3b3b3" />
      <polygon
         points="83.05,167.471 146.041,132.609 158.214,35.721 83.05,10.089 "
         id="polygon52"
         style="fill:#a6120d" />
      <polygon
         points="83.049,167.471 83.049,10.086 9.833,36.183 21.03,133.072 "
         id="polygon54"
         style="fill:#dd1b16" />
      <path
         inkscape:connector-curvature="0"
         d="m 103.74,93.871 -20.69,9.675 -21.807,0 -10.251,25.64 -19.067,0.353 L 83.05,15.804 103.74,93.871 Z M 101.74,89 83.187,52.271 67.969,88.368 l 15.08,0 L 101.74,89 Z"
         id="path56"
         style="fill:#f2f2f2" />
      <polygon
         points="118.285,129.543 136.529,129.881 83.049,15.804 83.186,52.271 100.454,88.396 83.088,88.396 83.049,103.523 107.062,103.546 "
         id="polygon58"
         style="fill:#b3b3b3" />
    </g>
    <path
       style="fill:none;fill-rule:evenodd;stroke:#000000;stroke-width:11.296175px;stroke-linecap:butt;stroke-linejoin:miter;stroke-opacity:1"
       d="m 444.039,386.91213 -56.48087,56.48087 0,56.48087 56.48087,56.48087 56.48086,0 56.48085,-56.48087 0,-56.48087 -56.48085,-56.48087 z"
       id="path3617-7-9-7-7-0-2"
       inkscape:connector-curvature="0"
       inkscape:export-xdpi="90"
       inkscape:export-ydpi="90" />
    <g
       id="g4500"
       inkscape:version="0.48.1 r9760"
       sodipodi:docname="twitter_bootstrap_logo.svg"
       transform="matrix(0.16312037,0,0,0.18021564,420.20757,417.36027)">
      <path
         id="path4502"
         d="m 612,510 c 0,56.1 -45.9,102 -102,102 l -408,0 C 45.9,612 0,566.1 0,510 L 0,102 C 0,45.9 45.9,0 102,0 l 408,0 c 56.1,0 102,45.9 102,102 l 0,408 z"
         inkscape:connector-curvature="0"
         style="fill:#563d7c" />
      <path
         id="path4504"
         d="m 166.3,133 173.5,0 c 32,0 57.7,7.3 77,22 19.3,14.7 29,36.8 29,66.5 0,18 -4.4,33.4 -13.2,46.2 -8.8,12.8 -21.4,22.8 -37.8,29.8 l 0,1 c 22,4.7 38.7,15.1 50,31.2 11.3,16.2 17,36.4 17,60.8 0,14 -2.5,27.1 -7.5,39.2 -5,12.2 -12.8,22.7 -23.5,31.5 -10.7,8.8 -24.3,15.8 -41,21 -16.7,5.2 -36.5,7.8 -59.5,7.8 l -164,0 0,-357 z m 62.5,149.5 102,0 c 15,0 27.5,-4.2 37.5,-12.8 10,-8.6 15,-20.8 15,-36.8 0,-18 -4.5,-30.7 -13.5,-38 -9,-7.3 -22,-11 -39,-11 l -102,0 0,98.6 z m 0,156.5 110.5,0 c 19,0 33.8,-4.9 44.2,-14.8 10.5,-9.8 15.8,-23.8 15.8,-41.8 0,-17.7 -5.2,-31.2 -15.8,-40.8 -10.6,-9.6 -25.2,-14.2 -44.2,-14.2 l -110.5,0 0,111.6 z"
         inkscape:connector-curvature="0"
         style="fill:#ffffff" />
    </g>
  </g>
</svg>
